# xmcd CD database file
#
# Track frame offsets:
#	150
#	26195
#	43295
#	58285
#	79340
#	103607
#	121422
#	137840
#	155350
#	171912
#	192115
#	218592
#	240850
#
# Disc length: 3440 seconds
#
# Revision: 15
# Processed by: cddbd v1.5.2PL0 Copyright (c) Steve Scherf et al.
# Submitted via: CDex 1.70beta3
#
DISCID=b50d6e0d
DTITLE=アバ - ザ・ビジターズ
DYEAR=1981
DGENRE=Pop
TTITLE0=ザ・ヴィジターズ
TTITLE1=ヘッド・オーヴァー・ヒールズ
TTITLE2=ホエン・オール・イズ・セッド・アンド・ダン
TTITLE3=ソルジャーズ
TTITLE4=アイ・レット・ザ・ミュージック・スピーク
TTITLE5=ワン・オブ・アス
TTITLE6=トゥー・フォー・ザ・プライス・オブ・ワン
TTITLE7=スリッピング・スルー
TTITLE8=ライク・アン・エンジェル～夢うつろ
TTITLE9=シュッド・アイ・ラフ・オア・クライ
TTITLE10=ザ・デイ・ビフォア・ユー・ケイム
TTITLE11=カサンドラ
TTITLE12=アンダー・アタック
EXTD=YEAR: 1981
EXTT0=
EXTT1=
EXTT2=
EXTT3=
EXTT4=
EXTT5=
EXTT6=
EXTT7=
EXTT8=
EXTT9=
EXTT10=
EXTT11=
EXTT12=
PLAYORDER=
